<?xml version="1.0" standalone="no"?>
<!DOCTYPE svg PUBLIC "-//W3C//DTD SVG 20010904//EN"
 "http://www.w3.org/TR/2001/REC-SVG-20010904/DTD/svg10.dtd">
<svg version="1.0" xmlns="http://www.w3.org/2000/svg"
 width="1944.000000pt" height="1944.000000pt" viewBox="0 0 1944.000000 1944.000000"
 preserveAspectRatio="xMidYMid meet">
<metadata>
Created by potrace 1.14, written by Peter Selinger 2001-2017
</metadata>
<g transform="translate(0.000000,1944.000000) scale(0.100000,-0.100000)"
fill="#000000" stroke="none">
<path d="M9505 19233 c-332 -46 -618 -314 -696 -653 -18 -79 -16 -270 5 -354
89 -368 406 -629 780 -641 109 -4 216 12 306 43 287 100 503 359 549 657 9 62
7 213 -4 275 -57 315 -298 571 -615 656 -62 16 -255 26 -325 17z"/>
<path d="M10703 18643 l2 -58 35 -1 c349 -11 481 -16 510 -19 19 -1 76 -6 125
-10 50 -4 97 -11 105 -17 12 -7 11 -8 -5 -4 -34 9 -591 30 -687 27 -13 -1 -16
-11 -15 -58 l2 -58 80 -1 c382 -8 698 -26 810 -48 11 -2 40 -7 65 -11 25 -4
54 -9 65 -12 11 -2 34 -6 50 -9 49 -8 424 -101 500 -125 629 -190 1185 -427
1830 -779 120 -65 403 -234 505 -300 436 -283 685 -468 1017 -757 195 -169
238 -209 427 -398 189 -189 279 -287 484 -529 62 -74 259 -325 337 -431 49
-66 100 -136 114 -155 34 -46 52 -72 192 -282 226 -337 448 -717 639 -1093
145 -287 243 -498 343 -740 137 -331 295 -817 352 -1078 2 -10 6 -26 9 -35 3
-9 7 -28 10 -42 2 -14 9 -43 14 -65 9 -34 62 -291 75 -365 3 -14 8 -41 12 -60
3 -19 8 -46 10 -60 1 -14 12 -89 24 -167 11 -78 23 -164 26 -190 3 -26 7 -61
10 -78 2 -16 7 -61 10 -100 4 -38 8 -81 10 -94 2 -13 7 -67 10 -120 4 -53 8
-106 10 -119 25 -158 24 -1074 0 -1286 -2 -16 -6 -59 -10 -95 -3 -36 -8 -79
-10 -96 -2 -16 -7 -57 -11 -90 -10 -90 -13 -111 -30 -220 -3 -16 -7 -43 -10
-60 -2 -16 -6 -41 -9 -55 -3 -14 -10 -52 -16 -85 -34 -192 -63 -329 -121 -565
-112 -461 -299 -1063 -538 -1735 -160 -449 -303 -746 -561 -1162 -162 -261
-425 -635 -602 -853 -181 -225 -303 -371 -383 -460 -17 -19 -73 -82 -125 -140
-368 -410 -859 -869 -1026 -957 -43 -23 -49 -29 -36 -39 27 -19 5 -33 -47 -30
-41 2 -50 -1 -50 -14 0 -18 35 -54 60 -62 25 -8 94 17 156 58 57 36 241 180
275 213 9 9 52 47 95 86 81 71 443 430 549 545 85 91 241 265 300 335 28 32
55 63 60 69 6 6 30 36 55 66 25 30 47 57 50 60 3 3 58 70 121 150 336 423 576
776 832 1222 86 149 255 509 313 666 61 164 310 887 342 992 6 19 31 100 56
180 74 238 199 686 231 830 16 71 36 158 39 170 2 8 19 87 36 175 18 88 34
169 36 180 9 46 38 224 48 300 22 167 39 311 51 455 9 94 17 332 19 522 0 108
5 200 9 204 7 7 1 -683 -7 -761 -2 -22 -7 -87 -11 -145 -4 -58 -8 -107 -10
-110 -1 -3 -6 -36 -9 -75 -4 -38 -9 -81 -11 -95 -2 -14 -7 -50 -10 -80 -4 -30
-9 -64 -11 -75 -2 -11 -6 -38 -9 -60 -3 -22 -15 -92 -26 -155 -12 -63 -23
-126 -26 -140 -2 -14 -20 -99 -39 -190 -20 -91 -38 -174 -40 -185 -2 -11 -26
-105 -54 -210 -28 -104 -53 -201 -56 -215 -3 -14 -23 -86 -45 -160 -115 -390
-216 -698 -394 -1205 -109 -308 -105 -297 -166 -432 -10 -24 -19 -46 -19 -49
0 -28 -234 -465 -363 -679 -97 -161 -391 -590 -479 -700 -4 -5 -44 -57 -89
-115 -123 -160 -305 -382 -405 -495 -29 -33 -62 -71 -74 -85 -226 -262 -665
-701 -875 -875 -33 -28 -62 -53 -65 -56 -14 -15 -159 -119 -188 -134 -33 -16
-33 -17 -16 -36 19 -21 19 -21 -50 -23 -58 -1 -67 -15 -32 -51 58 -58 146 -19
371 164 222 181 629 581 908 894 70 78 313 365 362 427 33 41 63 77 66 80 3 3
58 75 123 160 64 85 123 162 129 170 67 83 457 667 457 684 0 1 38 69 85 151
96 167 203 382 277 554 100 233 350 960 497 1441 45 149 145 505 155 555 3 11
25 103 50 205 24 102 49 210 55 240 6 30 13 66 16 80 9 44 54 292 65 365 6 39
13 81 15 95 13 81 29 224 40 350 3 36 8 81 10 100 24 212 24 1061 0 1245 -2
17 -7 71 -11 120 -11 153 -20 249 -40 410 -20 156 -19 152 -38 275 -9 58 -19
121 -21 140 -3 19 -8 46 -11 60 -3 14 -8 36 -10 50 -12 68 -48 244 -66 320
-11 47 -21 92 -23 101 -77 369 -291 996 -470 1385 -20 43 -46 101 -58 128 -76
180 -386 775 -514 986 -25 41 -54 89 -63 106 -38 66 -173 277 -278 436 -96
142 -145 213 -240 346 -9 13 -25 33 -36 45 -10 12 -26 33 -34 47 -20 31 -249
323 -300 383 -20 24 -56 66 -78 93 -23 27 -52 60 -64 74 -12 14 -45 52 -73 85
-122 141 -306 335 -522 550 -254 255 -322 318 -510 480 -32 28 -63 55 -69 61
-29 28 -316 252 -431 336 -323 235 -699 473 -1065 673 -108 60 -575 295 -584
295 -3 0 -42 18 -88 39 -46 22 -112 52 -148 66 -36 15 -83 35 -105 45 -203 91
-658 252 -930 328 -149 42 -366 94 -489 118 -11 2 -32 6 -46 9 -14 3 -43 7
-65 10 -22 3 -53 8 -70 12 -34 7 -58 9 -170 18 -121 10 -191 13 -427 20 l-218
7 3 -59z m8244 -8625 c-3 -7 -5 -2 -5 12 0 14 2 19 5 13 2 -7 2 -19 0 -25z
m10 -120 c-3 -8 -6 -5 -6 6 -1 11 2 17 5 13 3 -3 4 -12 1 -19z m4 -91 c1 -37
-1 -70 -4 -74 -4 -3 -7 29 -7 72 0 95 7 96 11 2z m6 -102 c0 -8 -4 -15 -9 -15
-4 0 -8 7 -8 15 0 8 4 15 8 15 5 0 9 -7 9 -15z"/>
<path d="M8266 18673 c-1 -1 -46 -4 -101 -7 -168 -9 -284 -25 -500 -68 -135
-27 -167 -33 -200 -42 -5 -1 -26 -6 -45 -10 -19 -4 -120 -32 -225 -62 -307
-87 -598 -189 -905 -317 -230 -96 -321 -138 -565 -257 -541 -265 -1078 -593
-1545 -943 -74 -56 -137 -104 -140 -107 -3 -3 -27 -24 -55 -45 -27 -22 -61
-50 -75 -61 -641 -540 -1129 -1063 -1641 -1763 -30 -41 -61 -85 -69 -97 -350
-518 -485 -737 -697 -1129 -129 -239 -340 -681 -455 -955 -198 -472 -393
-1144 -473 -1635 -3 -16 -10 -52 -15 -80 -10 -54 -14 -77 -35 -230 -23 -164
-31 -223 -40 -325 -3 -30 -7 -68 -9 -85 -2 -16 -7 -68 -11 -115 -3 -47 -8
-105 -10 -130 -19 -211 -27 -981 -12 -1175 4 -49 9 -119 12 -155 3 -36 7 -81
10 -100 3 -19 7 -62 10 -94 3 -33 7 -71 9 -85 3 -14 8 -51 11 -81 3 -30 8 -62
10 -70 2 -8 7 -35 10 -60 5 -43 10 -76 20 -130 3 -14 7 -43 11 -65 3 -22 9
-56 14 -75 5 -19 11 -52 14 -72 3 -20 20 -99 37 -175 17 -76 33 -149 35 -163
10 -50 67 -269 121 -465 154 -557 493 -1559 623 -1841 49 -107 175 -354 209
-412 17 -29 31 -55 31 -58 0 -3 16 -30 35 -60 19 -30 35 -57 35 -60 0 -17 220
-355 359 -554 194 -277 615 -814 766 -976 5 -6 35 -40 65 -75 319 -369 807
-846 1060 -1037 81 -62 95 -71 155 -100 66 -33 96 -32 130 3 40 39 33 51 -30
50 -56 -2 -68 8 -43 33 10 10 8 14 -10 18 -26 7 -26 5 -7 40 13 26 13 29 -3
35 -9 4 -33 5 -53 2 -41 -5 -57 8 -34 27 14 11 10 17 -27 38 -68 40 -191 136
-327 256 -119 105 -482 462 -601 591 -92 100 -215 238 -251 280 -19 22 -36 42
-39 45 -3 3 -28 32 -55 65 -28 33 -52 62 -55 65 -3 3 -58 70 -121 150 -448
561 -833 1188 -1033 1681 -65 160 -335 927 -360 1024 -2 6 -6 17 -9 25 -33 86
-207 680 -252 860 -32 129 -104 433 -108 455 -3 17 -18 100 -35 185 -17 85
-34 178 -38 205 -4 28 -8 57 -10 65 -1 8 -5 33 -9 56 -3 22 -7 52 -10 65 -2
13 -6 49 -10 80 -3 31 -7 65 -9 75 -2 11 -7 57 -11 104 -4 47 -9 99 -11 115
-26 255 -25 1045 1 1315 2 19 6 71 10 115 3 44 7 96 10 115 2 19 7 64 10 100
4 36 8 76 10 90 2 14 7 50 10 80 3 30 12 96 20 145 7 50 16 113 20 140 3 28
10 68 15 90 5 22 11 58 14 80 4 22 8 47 11 55 2 8 6 32 10 54 3 21 7 41 9 45
2 3 7 28 10 55 4 27 9 52 11 56 2 4 7 20 10 36 3 16 8 40 11 54 13 62 59 246
91 360 19 69 38 139 43 155 39 147 170 515 255 720 247 593 586 1231 939 1770
194 296 345 503 580 800 330 416 747 850 1171 1220 161 140 415 338 625 487
160 113 474 318 555 362 11 6 74 43 140 82 130 77 336 189 510 278 110 57 512
246 521 246 3 0 29 11 59 25 83 37 375 152 515 202 340 121 773 238 1020 277
19 3 49 8 65 11 59 10 91 14 150 20 33 4 76 8 95 10 19 2 98 7 175 11 77 4
147 7 155 9 11 1 15 16 15 56 l-1 54 -94 -1 c-99 -1 -297 -12 -340 -19 -14 -2
-45 -6 -70 -9 -25 -3 -54 -8 -65 -10 -11 -2 -42 -7 -68 -10 -54 -8 -68 -11
-142 -26 -27 -6 -59 -12 -70 -14 -255 -51 -840 -226 -1050 -316 -11 -4 -78
-32 -150 -60 -200 -80 -452 -193 -650 -291 -193 -95 -434 -221 -475 -247 -14
-9 -27 -17 -30 -17 -7 0 -233 -134 -350 -207 -52 -32 -104 -64 -115 -71 -198
-122 -609 -414 -741 -525 -12 -10 -53 -43 -90 -73 -38 -29 -71 -56 -74 -59 -3
-3 -34 -30 -70 -60 -36 -30 -67 -57 -70 -60 -3 -3 -50 -45 -105 -95 -241 -216
-496 -473 -725 -731 -193 -218 -239 -273 -428 -519 -300 -388 -509 -698 -769
-1138 -51 -88 -93 -160 -93 -162 0 -2 -15 -30 -34 -62 -92 -159 -406 -785
-406 -808 0 -2 -13 -32 -29 -67 -149 -326 -289 -715 -395 -1100 -25 -92 -46
-170 -46 -173 0 -3 -4 -5 -10 -5 -6 0 -6 9 0 26 6 14 12 37 15 52 5 26 28 115
74 284 66 243 247 739 355 971 20 43 36 81 36 83 0 15 275 574 336 684 20 36
55 99 77 140 22 41 48 87 58 102 11 14 19 28 19 31 0 7 177 304 211 353 16 23
29 45 29 47 0 14 381 573 400 587 4 3 18 21 31 41 28 43 197 264 224 295 6 6
26 30 45 54 102 128 251 300 405 469 86 96 467 475 555 553 41 37 91 81 110
98 333 301 917 723 1315 950 17 10 64 37 105 62 41 24 111 64 155 88 44 24
112 61 150 82 97 53 429 216 555 273 58 26 128 57 155 70 115 52 526 212 615
239 30 10 64 21 75 26 143 61 725 211 950 244 184 27 323 39 565 50 31 1 35 4
34 29 -1 15 -2 41 -3 57 l-1 31 -86 -3 c-47 -2 -87 -4 -88 -5z m-7488 -7150
c-12 -43 -35 -150 -54 -238 -18 -88 -33 -150 -33 -139 -1 12 8 66 19 120 11
55 23 111 25 126 3 16 12 58 21 95 18 78 22 95 23 106 1 4 5 7 10 7 5 0 0 -35
-11 -77z m-91 -425 c-3 -8 -6 -5 -6 6 -1 11 2 17 5 13 3 -3 4 -12 1 -19z m-10
-60 c-3 -8 -6 -5 -6 6 -1 11 2 17 5 13 3 -3 4 -12 1 -19z"/>
<path d="M10748 18348 c-3 -7 -6 -34 -7 -59 l-2 -47 68 -7 c37 -4 75 -8 83
-10 8 -1 51 -6 94 -10 43 -4 86 -8 95 -10 9 -1 45 -6 81 -10 36 -4 72 -9 80
-10 8 -1 40 -6 70 -10 173 -22 451 -73 463 -84 4 -4 -43 3 -105 15 -62 12
-131 24 -153 27 -22 4 -71 11 -110 16 -197 29 -202 29 -275 36 -36 3 -78 8
-95 10 -16 2 -73 7 -125 10 -52 3 -109 8 -127 10 -39 6 -44 -2 -48 -66 -2 -47
-1 -49 24 -50 75 -4 265 -19 306 -24 17 -2 73 -9 125 -15 52 -6 106 -13 120
-15 14 -3 59 -9 100 -15 41 -6 104 -16 140 -22 36 -5 74 -11 86 -13 183 -26
514 -134 774 -253 25 -11 191 -79 370 -152 1052 -425 1523 -650 1980 -943 95
-61 353 -245 387 -276 10 -9 41 -35 70 -57 84 -66 157 -130 327 -284 74 -66
433 -426 531 -530 253 -270 641 -765 1080 -1377 33 -46 63 -83 67 -83 12 0 87
54 88 63 0 5 -12 24 -27 43 l-26 35 28 23 29 23 -49 64 c-271 354 -951 1186
-1045 1279 -3 3 -39 43 -80 90 -105 119 -573 595 -664 675 -6 6 -60 55 -121
110 -530 482 -1040 793 -1885 1148 -461 193 -1049 425 -1285 507 -292 100
-649 176 -1015 215 -30 3 -66 8 -80 10 -14 2 -54 7 -90 10 -36 4 -96 11 -135
16 -95 12 -112 11 -117 -3z m1076 -267 c4 -5 -3 -7 -14 -4 -23 6 -26 13 -6 13
8 0 17 -4 20 -9z m233 -67 c-3 -3 -12 -4 -19 -1 -8 3 -5 6 6 6 11 1 17 -2 13
-5z m43 -14 c8 -5 11 -10 5 -10 -5 0 -17 5 -25 10 -8 5 -10 10 -5 10 6 0 17
-5 25 -10z m177 -61 c357 -131 1186 -470 1488 -607 248 -113 693 -348 681
-359 -2 -3 -21 6 -43 20 -39 24 -435 221 -558 277 -166 76 -464 202 -785 332
-190 77 -442 181 -560 230 -118 50 -253 106 -300 124 -133 52 -76 40 77 -17z"/>
<path d="M8548 18295 c-2 -1 -32 -6 -68 -9 -36 -3 -81 -8 -100 -11 -19 -2 -62
-7 -95 -10 -56 -6 -76 -8 -158 -20 -19 -2 -60 -7 -92 -11 -32 -3 -68 -8 -79
-10 -12 -2 -50 -9 -86 -15 -36 -5 -74 -11 -85 -13 -11 -2 -40 -7 -65 -10 -25
-4 -52 -8 -60 -11 -8 -2 -30 -7 -49 -10 -157 -27 -614 -184 -926 -319 -16 -8
-97 -42 -180 -76 -164 -68 -479 -222 -645 -315 -472 -263 -1183 -739 -1535
-1028 -33 -27 -80 -66 -105 -86 -60 -49 -282 -242 -350 -305 -428 -394 -667
-634 -1085 -1091 -11 -12 -54 -59 -95 -105 -41 -46 -100 -111 -131 -144 -148
-162 -141 -152 -123 -171 18 -18 17 -19 119 96 16 19 56 63 89 99 32 36 79 88
104 115 25 28 70 77 101 111 384 418 582 619 906 920 155 144 168 156 244 223
36 31 81 70 100 88 53 46 230 195 288 240 411 325 1046 748 1508 1005 156 86
451 229 625 303 102 43 199 84 216 91 303 132 754 283 919 310 21 3 47 8 59
10 26 5 143 25 171 29 11 2 40 6 65 10 57 9 93 13 155 20 28 3 61 7 75 10 14
3 47 7 74 10 26 2 65 7 85 10 20 2 63 7 96 11 33 3 74 7 90 9 17 1 38 3 48 4
24 1 19 43 -5 47 -9 1 -18 1 -20 -1z"/>
<path d="M8687 18144 c-1 -1 -33 -5 -72 -8 -38 -4 -86 -9 -105 -11 -19 -3 -57
-7 -85 -10 -49 -5 -105 -12 -155 -20 -14 -2 -50 -6 -80 -9 -30 -3 -64 -8 -75
-10 -11 -2 -42 -7 -68 -10 -27 -4 -59 -9 -70 -12 -12 -2 -74 -13 -137 -24
-252 -44 -446 -107 -915 -295 -373 -149 -667 -284 -880 -404 -22 -13 -65 -37
-95 -54 -440 -245 -1103 -690 -1490 -1000 -55 -44 -320 -268 -350 -297 -9 -8
-39 -35 -66 -59 -373 -332 -788 -750 -1189 -1195 -5 -7 -32 -36 -60 -66 -27
-31 -88 -98 -135 -149 -47 -52 -91 -100 -97 -107 -20 -19 -16 -28 26 -67 l39
-36 74 81 c40 45 80 89 88 98 8 9 51 56 95 105 44 49 87 96 95 105 8 9 44 47
79 86 223 240 317 339 486 509 105 105 231 228 280 274 50 47 115 107 145 136
136 127 302 273 425 375 50 41 92 77 95 81 17 19 283 219 435 328 153 109 466
320 585 396 19 13 67 43 105 67 97 61 268 163 407 242 106 60 510 266 522 266
2 0 39 16 80 35 42 19 79 35 82 35 3 0 24 8 47 19 23 10 123 51 222 90 99 40
189 76 200 81 110 51 513 177 620 194 17 2 82 13 145 24 63 11 137 23 163 27
27 4 56 8 65 9 10 2 44 7 77 11 33 4 71 9 85 11 14 2 52 6 85 9 33 3 71 7 85
10 47 7 174 21 222 24 15 1 17 9 14 49 -3 26 -5 52 -5 59 -1 9 -35 15 -44 7z"/>
<path d="M10751 17860 c-6 -3 -11 -30 -13 -59 l-3 -54 200 -33 c110 -18 218
-36 240 -39 22 -3 47 -8 55 -10 8 -2 32 -6 52 -9 153 -23 580 -120 639 -146
l24 -11 -25 6 c-89 19 -410 84 -435 88 -16 3 -124 21 -240 40 -115 20 -230 38
-255 42 -25 3 -52 8 -61 11 -13 3 -18 -6 -23 -42 -9 -71 -9 -72 37 -79 23 -4
52 -9 65 -11 12 -2 48 -8 80 -13 31 -6 75 -13 97 -16 22 -3 65 -10 95 -15 30
-5 71 -12 90 -15 19 -3 58 -10 85 -15 28 -6 120 -24 205 -41 325 -64 659 -164
1060 -320 434 -168 703 -316 1320 -725 107 -71 250 -165 318 -209 291 -189
711 -471 782 -526 14 -11 68 -51 120 -91 245 -185 383 -311 805 -732 l340
-340 -35 -8 c-66 -15 -145 -22 -260 -22 -105 0 -119 2 -165 26 -129 68 -173
88 -210 93 -22 3 -58 9 -80 12 -22 3 -45 6 -52 6 -13 0 -9 12 13 37 11 13 0
26 -76 90 -91 76 -95 83 -55 112 6 5 -11 27 -40 54 -27 25 -95 88 -150 139
-55 51 -113 105 -130 120 -16 15 -50 46 -75 69 -153 140 -228 205 -440 387
-85 72 -157 135 -160 138 -3 3 -27 24 -55 46 -77 62 -86 69 -99 81 -30 28
-202 157 -286 216 -210 144 -582 342 -875 465 -33 14 -78 33 -100 43 -448 201
-764 320 -1340 503 -129 41 -712 207 -727 207 -9 0 -19 -20 -27 -51 -14 -52
-8 -68 25 -69 6 0 34 -7 62 -15 44 -13 51 -19 43 -33 -4 -9 -11 -33 -15 -53
l-6 -36 92 -26 c51 -15 203 -59 338 -97 268 -77 276 -80 560 -174 359 -118
603 -210 863 -325 152 -67 416 -198 515 -255 35 -20 65 -36 67 -36 6 0 142
-84 238 -147 54 -35 162 -114 240 -176 78 -61 178 -138 222 -171 44 -34 82
-63 85 -66 3 -3 84 -64 180 -137 162 -122 474 -372 534 -428 6 -6 79 -68 161
-137 83 -70 166 -141 185 -157 19 -17 58 -50 87 -73 29 -24 52 -46 53 -50 0
-4 -9 -10 -20 -13 -40 -13 -99 -87 -95 -120 3 -24 17 -55 26 -55 5 0 9 -7 9
-15 0 -8 5 -15 10 -15 6 0 10 -4 10 -10 0 -10 494 -766 511 -780 3 -3 16 -24
29 -47 13 -24 27 -43 32 -43 4 0 8 -4 8 -9 0 -9 51 -89 73 -116 4 -5 91 -136
194 -290 102 -154 186 -281 187 -282 1 -1 14 -4 30 -7 30 -5 36 -12 101 -110
22 -34 47 -62 55 -62 8 -1 31 -2 50 -3 37 -1 28 7 513 -467 81 -79 147 -143
148 -142 3 10 20 178 24 248 7 92 7 297 1 354 -14 129 -78 335 -163 526 -168
376 -347 734 -539 1075 -61 108 -62 110 -97 109 -30 -1 -37 4 -55 36 -10 20
-31 57 -46 82 l-26 45 25 23 c14 13 22 26 18 30 -5 3 -21 20 -37 37 -25 28
-27 34 -15 49 12 14 -1 30 -107 133 -321 310 -426 411 -684 651 -285 266 -682
599 -983 823 -601 449 -1373 886 -2025 1146 -298 119 -704 253 -942 310 -224
53 -961 183 -979 171z m1226 -366 c-3 -3 -12 -4 -19 -1 -8 3 -5 6 6 6 11 1 17
-2 13 -5z m2313 -1120 c0 -2 -9 0 -20 6 -11 6 -20 13 -20 16 0 2 9 0 20 -6 11
-6 20 -13 20 -16z m31 -21 c13 -16 12 -17 -3 -4 -17 13 -22 21 -14 21 2 0 10
-8 17 -17z m-316 -372 c66 -46 206 -152 225 -171 3 -3 39 -32 80 -65 149 -118
142 -124 -10 -9 -85 64 -169 129 -186 143 -16 14 -45 37 -64 51 -72 54 -141
106 -162 123 -22 17 -22 17 7 0 17 -9 66 -42 110 -72z"/>
<path d="M8449 17806 c-3 -3 -25 -8 -49 -11 -25 -3 -70 -9 -100 -15 -30 -5
-71 -11 -90 -14 -19 -3 -89 -15 -155 -26 -66 -12 -133 -23 -150 -26 -472 -76
-1013 -242 -1570 -479 -83 -35 -374 -184 -480 -245 -240 -138 -503 -308 -800
-519 -154 -109 -402 -296 -425 -321 -3 -3 -34 -29 -70 -59 -242 -199 -562
-511 -795 -772 -105 -118 -169 -192 -248 -284 -94 -110 -94 -107 -24 -157 l27
-19 27 31 c15 18 32 37 38 44 6 6 51 58 100 116 49 58 102 119 117 135 15 17
37 42 50 56 156 174 288 309 449 461 68 64 135 126 149 138 14 12 41 36 60 53
432 394 1261 949 1775 1188 187 87 254 115 440 183 55 21 109 41 120 46 24 10
255 88 370 123 163 51 460 122 636 152 19 3 81 14 139 25 58 11 164 28 235 40
72 11 158 25 193 31 l62 11 -6 52 c-6 49 -15 71 -25 62z"/>
<path d="M8519 17626 c-2 -2 -26 -7 -54 -10 -27 -4 -59 -9 -70 -11 -11 -3 -37
-7 -57 -10 -21 -2 -77 -12 -125 -20 -49 -9 -104 -18 -123 -21 -19 -3 -80 -14
-135 -24 -55 -10 -113 -21 -130 -24 -16 -3 -41 -8 -55 -11 -30 -7 -115 -24
-150 -31 -68 -14 -328 -87 -465 -131 -101 -33 -359 -125 -480 -171 -485 -187
-892 -415 -1494 -837 -97 -68 -312 -232 -391 -299 -292 -244 -746 -688 -1075
-1051 -15 -16 -64 -70 -109 -119 -44 -48 -82 -91 -84 -95 -1 -4 16 -25 39 -46
l40 -40 31 35 c30 34 180 198 285 310 28 30 68 73 88 95 279 301 765 755 1010
943 116 88 405 293 520 368 33 21 62 42 63 47 2 4 8 7 13 7 6 0 37 18 69 40
32 22 61 40 64 40 3 0 24 13 48 29 121 81 425 245 643 346 385 179 1090 405
1435 460 19 3 67 12 105 20 39 8 89 17 112 19 23 3 61 10 85 15 24 6 66 13 93
16 28 4 57 8 65 10 8 2 35 7 60 10 25 4 74 12 110 18 70 13 69 11 55 82 -2 11
-4 26 -4 33 -1 11 -22 17 -32 8z"/>
<path d="M8125 17302 c-27 -6 -497 -140 -665 -190 -138 -42 -579 -186 -615
-201 -11 -5 -42 -17 -70 -26 -75 -26 -282 -109 -350 -141 -33 -15 -62 -28 -65
-29 -19 -4 -349 -175 -455 -235 -619 -350 -1121 -724 -1574 -1171 -120 -118
-471 -506 -471 -519 0 -4 18 -21 40 -39 41 -33 55 -32 80 1 10 13 87 102 111
129 13 14 60 65 104 114 267 295 662 652 939 850 16 11 40 29 55 41 28 23 322
220 411 276 422 266 842 478 1210 611 117 42 553 187 630 209 19 5 42 12 50
15 8 3 20 7 25 9 6 1 118 34 250 72 132 39 277 80 323 92 90 24 91 26 69 95
-9 32 -16 40 -32 37z"/>
<path d="M8255 17159 c-32 -11 -68 -21 -80 -23 -52 -11 -418 -117 -640 -187
-375 -117 -794 -267 -894 -319 -9 -5 -34 -16 -56 -25 -58 -25 -359 -177 -433
-219 -35 -20 -66 -36 -68 -36 -5 0 -291 -171 -374 -224 -183 -116 -591 -402
-620 -435 -3 -3 -41 -35 -85 -71 -44 -35 -82 -67 -85 -70 -3 -3 -21 -18 -40
-34 -129 -106 -445 -412 -585 -567 -104 -115 -191 -213 -224 -251 l-32 -36 45
-37 c38 -31 48 -35 58 -23 7 7 44 49 83 93 231 265 425 461 659 670 564 502
1400 1015 2056 1260 194 72 718 245 855 281 125 33 552 158 558 163 8 8 -22
111 -32 110 -3 0 -33 -9 -66 -20z"/>
<path d="M9230 17097 c-217 -103 -452 -224 -595 -310 -94 -55 -265 -176 -301
-211 -6 -6 -37 -33 -70 -61 -78 -67 -293 -283 -356 -359 -28 -34 -54 -63 -58
-66 -27 -20 -228 -306 -299 -425 l-24 -40 -18 42 -18 42 -148 -59 c-170 -66
-414 -165 -458 -185 -16 -7 -73 -32 -125 -55 -193 -84 -415 -202 -575 -305
-88 -57 -239 -158 -282 -189 -23 -17 -58 -42 -78 -56 -20 -14 -42 -30 -48 -35
-7 -6 -52 -42 -102 -80 -78 -60 -268 -216 -331 -271 -12 -11 -46 -39 -75 -64
-58 -48 -348 -334 -416 -411 -94 -105 -222 -272 -298 -389 -77 -118 -278 -457
-323 -545 l-20 -41 49 -26 c54 -29 52 -30 93 47 15 28 31 57 36 65 5 8 60 101
121 205 132 223 247 395 324 481 6 6 30 35 55 65 336 398 954 907 1490 1226
95 57 285 153 400 203 74 32 118 51 203 89 75 34 498 201 507 201 5 0 0 -17
-11 -37 -172 -305 -287 -631 -337 -957 -15 -98 -6 -447 13 -516 2 -8 6 -28 9
-43 9 -52 57 -208 86 -283 164 -413 457 -738 839 -932 220 -112 374 -145 713
-151 l26 -1 -3 -367 c-2 -203 -6 -782 -10 -1288 -4 -506 -8 -939 -9 -962 -1
-24 3 -43 8 -44 6 0 331 -2 722 -5 l711 -4 2 188 c2 103 4 250 6 327 2 77 6
295 10 485 4 190 8 415 10 500 2 85 6 319 10 520 6 323 12 558 14 628 1 20 5
22 34 17 48 -9 300 -10 372 -1 91 11 154 32 268 90 335 169 635 470 800 801
174 349 221 826 121 1235 -54 219 -140 426 -311 745 -79 148 -264 403 -404
559 -310 345 -540 547 -849 747 -132 86 -209 129 -435 243 l-210 106 -140 0
-140 -1 -175 -82z"/>
<path d="M7790 16720 c-30 -10 -102 -33 -160 -51 -217 -65 -662 -214 -835
-279 -367 -138 -823 -364 -1155 -573 -69 -44 -322 -217 -330 -226 -3 -4 -32
-26 -65 -51 -64 -48 -281 -227 -355 -294 -110 -99 -463 -460 -539 -551 -88
-106 -356 -459 -431 -570 -25 -37 -59 -85 -76 -108 -17 -23 -106 -154 -197
-291 l-167 -249 45 -28 c25 -16 49 -29 53 -29 4 0 57 76 117 168 61 92 113
171 118 177 4 5 46 66 94 135 74 108 242 345 265 375 5 6 47 62 95 125 391
517 956 1027 1513 1365 255 155 603 330 910 458 185 78 712 257 1030 351 69
21 132 40 140 43 8 3 18 5 23 5 4 -1 7 4 7 11 0 21 -31 107 -38 106 -4 0 -32
-9 -62 -19z"/>
<path d="M11456 16588 c-8 -29 -12 -56 -8 -60 4 -4 84 -30 177 -58 438 -132
923 -303 1175 -415 108 -48 466 -225 533 -263 20 -12 54 -31 75 -43 257 -144
609 -388 757 -524 l40 -37 -50 39 c-499 394 -1143 731 -1866 978 -297 101
-755 245 -780 245 -8 0 -42 -101 -36 -105 1 -2 56 -19 122 -39 304 -93 866
-283 1020 -345 643 -258 1191 -583 1664 -988 380 -326 648 -620 972 -1068 155
-214 153 -212 356 -512 l176 -262 27 15 c14 9 36 24 48 33 l22 16 -46 69 c-48
72 -48 70 -1 97 11 6 16 17 13 25 -9 23 -263 401 -416 619 -35 50 -73 104 -84
120 -204 292 -406 533 -661 790 -373 375 -759 675 -1185 920 -119 69 -579 305
-593 305 -3 0 -38 15 -79 34 -77 36 -319 132 -403 161 -287 99 -407 138 -635
209 -356 111 -316 106 -334 44z m2779 -1418 c10 -11 16 -20 13 -20 -3 0 -13 9
-23 20 -10 11 -16 20 -13 20 3 0 13 -9 23 -20z"/>
<path d="M7936 16534 c-22 -8 -49 -16 -60 -18 -12 -3 -64 -18 -116 -34 -52
-17 -147 -47 -210 -66 -369 -116 -714 -243 -907 -332 -41 -18 -77 -34 -79 -34
-10 0 -439 -217 -492 -249 -29 -17 -54 -31 -56 -31 -3 0 -124 -70 -191 -110
-64 -39 -273 -181 -355 -242 -379 -280 -779 -661 -1054 -1002 -63 -78 -289
-381 -347 -466 -24 -36 -46 -67 -49 -70 -10 -10 -56 -77 -226 -330 l-171 -256
49 -33 c28 -18 51 -31 52 -29 2 2 47 71 101 153 217 331 495 722 669 940 189
237 475 529 741 756 399 340 836 614 1370 859 300 138 600 246 1179 425 131
41 240 76 243 79 3 3 -1 28 -8 55 -14 56 -20 58 -83 35z"/>
<path d="M11982 15878 c-11 -29 -17 -56 -13 -59 3 -4 87 -39 186 -77 312 -122
680 -281 671 -289 -2 -3 -14 1 -27 7 -60 33 -639 264 -644 258 -2 -2 -12 -26
-23 -53 l-20 -51 211 -84 c605 -239 857 -363 1197 -590 252 -168 572 -416 780
-605 184 -167 274 -255 387 -381 139 -153 224 -281 412 -617 59 -104 88 -147
99 -145 11 2 34 -29 76 -103 l59 -105 48 25 c27 14 49 30 49 35 0 5 -20 43
-44 85 -24 42 -56 99 -71 126 -23 42 -135 231 -178 299 -19 31 -147 217 -221
323 -276 392 -674 779 -1216 1183 -442 329 -776 509 -1401 755 -79 31 -153 60
-164 65 -17 8 -128 50 -131 50 -1 0 -10 -24 -22 -52z m898 -443 c17 -9 30 -18
30 -21 0 -4 -59 23 -69 32 -10 9 13 3 39 -11z"/>
<path d="M7285 15870 c-11 -5 -105 -43 -210 -84 -171 -67 -327 -131 -455 -188
-74 -33 -334 -157 -350 -168 -8 -5 -48 -28 -89 -52 -41 -24 -86 -50 -100 -58
-125 -73 -530 -359 -637 -449 -17 -14 -48 -39 -69 -56 -45 -35 -227 -189 -300
-255 -86 -76 -368 -362 -425 -430 -149 -176 -213 -264 -339 -468 -28 -46 -51
-87 -51 -92 0 -5 -4 -10 -8 -12 -7 -3 -202 -342 -202 -353 0 -5 95 -55 105
-55 3 0 5 4 5 9 0 6 15 36 34 68 18 32 46 81 61 108 22 41 96 165 220 368 156
257 506 634 866 932 13 11 49 40 79 65 30 25 60 50 67 57 34 31 332 250 446
327 275 187 498 307 842 453 174 74 465 191 558 224 40 14 40 16 11 87 -13 33
-25 37 -59 22z"/>
<path d="M3555 14493 c-94 -20 -145 -38 -204 -72 -38 -21 -85 -44 -105 -51
-35 -11 -176 -15 -223 -6 -12 3 -50 7 -84 11 -35 4 -66 8 -69 10 -3 1 -26 6
-52 9 -54 7 -55 6 -130 -134 -25 -47 -58 -107 -73 -135 -91 -162 -273 -521
-347 -685 -9 -19 -31 -66 -48 -105 -55 -121 -80 -178 -105 -240 -25 -64 -73
-201 -75 -213 0 -4 -5 -25 -11 -47 -27 -98 -31 -144 -32 -310 0 -138 8 -292
19 -370 4 -22 6 -48 6 -59 -1 -17 1 -16 24 4 13 13 24 19 25 14 3 -47 12 -100
17 -106 6 -6 151 131 493 468 125 124 126 125 178 128 29 2 54 6 55 8 8 10
283 421 291 436 6 9 153 231 326 492 468 705 469 707 469 738 0 39 -104 184
-144 202 -30 14 -160 22 -201 13z"/>
<path d="M17439 13830 c0 -3 -3 -14 -5 -25 -2 -11 -5 -54 -6 -95 -2 -87 13
-132 92 -284 76 -148 87 -216 56 -341 -23 -94 -42 -196 -40 -225 12 -244 16
-330 19 -415 2 -55 7 -167 10 -250 4 -82 8 -193 10 -245 2 -52 6 -167 10 -255
4 -88 8 -198 10 -245 2 -47 7 -164 10 -260 4 -96 8 -200 9 -231 1 -55 1 -56
25 -47 13 5 44 22 68 38 24 17 45 30 46 30 3 0 9 -113 11 -192 0 -32 5 -58 11
-58 25 0 136 79 197 140 96 97 166 211 256 415 l35 80 1 190 c0 173 -7 322
-20 400 -3 17 -7 48 -9 70 -2 22 -11 85 -20 140 -8 55 -18 114 -21 130 -2 17
-6 41 -9 55 -3 14 -7 41 -10 60 -11 68 -46 225 -55 250 -6 14 -11 34 -13 45
-2 11 -7 27 -10 35 -3 8 -15 44 -27 80 -35 103 -110 251 -221 435 -56 93 -107
175 -113 181 -6 7 -40 58 -76 113 -65 101 -80 116 -80 84 0 -13 -4 -11 -13 7
-18 34 -127 196 -128 190z"/>
<path d="M1860 13545 c-24 -36 -45 -63 -49 -59 -6 5 -7 9 -10 37 -1 6 -49 -60
-107 -148 -189 -288 -296 -477 -358 -632 -52 -132 -107 -354 -142 -573 -3 -19
-7 -46 -10 -60 -12 -72 -24 -150 -29 -195 -3 -27 -8 -61 -10 -73 -12 -71 -19
-220 -19 -402 l0 -205 58 -126 c96 -212 209 -366 326 -445 55 -37 110 -65 111
-56 0 4 2 31 3 59 2 61 9 72 33 52 10 -9 30 -20 46 -27 l27 -12 1 48 c2 77 15
418 24 632 4 101 14 341 20 500 2 52 6 158 10 235 3 77 8 187 10 245 2 58 6
159 10 225 6 109 4 130 -20 225 -32 127 -38 216 -19 278 7 26 37 92 65 147 76
146 86 184 84 292 -1 51 -4 95 -7 98 -3 3 -24 -24 -48 -60z"/>
<path d="M13808 13135 c-2 -2 -25 -6 -53 -10 -70 -9 -189 -50 -260 -90 -404
-227 -548 -721 -328 -1125 84 -155 210 -272 385 -355 l73 -35 1 -93 c2 -101 6
-132 29 -222 37 -139 148 -316 251 -400 27 -22 51 -42 54 -45 16 -18 116 -74
179 -100 182 -75 391 -83 575 -23 269 88 463 291 547 569 26 86 34 291 15 374
-48 203 -116 322 -258 455 -65 60 -106 88 -188 128 l-105 52 1 81 c7 456 -350
827 -807 839 -59 2 -109 2 -111 0z"/>
<path d="M15449 12971 c-26 -21 -27 -56 -5 -167 2 -12 7 -39 11 -60 53 -319
91 -425 253 -708 57 -100 202 -337 217 -354 1 -1 17 -4 36 -6 21 -2 39 -12 49
-27 8 -13 33 -51 55 -84 l40 -60 56 -2 c64 -3 123 -24 254 -91 136 -69 357
-218 490 -331 17 -14 51 -42 75 -61 24 -19 74 -60 110 -90 156 -133 349 -285
399 -315 12 -7 13 6 7 81 -9 115 -12 139 -42 259 -24 92 -43 149 -96 280 -31
77 -140 292 -186 369 -23 37 -42 70 -42 72 0 10 -104 162 -281 411 -107 150
-245 344 -307 433 -63 88 -118 161 -123 161 -5 1 -17 2 -26 2 -10 1 -46 39
-81 87 -55 74 -67 85 -95 86 -18 1 -81 5 -142 9 -163 10 -217 13 -355 20 -68
4 -132 11 -141 15 -9 5 -20 25 -23 45 -5 23 -13 35 -24 36 -9 1 -27 3 -40 4
-13 1 -32 -5 -43 -14z"/>
<path d="M3837 12903 c-2 -5 -10 -25 -16 -45 -10 -31 -17 -38 -39 -39 -15 0
-45 -2 -67 -4 -49 -4 -208 -14 -335 -20 -176 -9 -240 -14 -249 -20 -7 -4 -295
-405 -420 -585 -17 -25 -71 -101 -120 -170 -295 -411 -491 -843 -526 -1160
-10 -96 -14 -150 -9 -150 3 0 16 8 31 17 l26 17 -6 -47 c-3 -26 -3 -47 1 -47
7 0 41 21 67 42 6 5 69 54 140 110 72 56 135 107 140 113 6 6 35 31 65 56 30
24 57 46 60 49 3 3 50 41 105 85 55 44 102 83 105 86 3 3 48 35 100 72 52 37
100 71 107 77 7 5 15 10 17 10 3 0 29 15 58 34 97 61 268 141 328 153 14 2 42
5 64 6 40 2 43 5 109 107 25 38 137 226 182 305 72 126 167 345 173 398 0 4 6
31 11 60 6 28 13 62 16 75 2 13 6 31 9 40 3 9 7 35 11 57 3 22 10 65 15 95 20
119 20 139 -3 157 -12 10 -30 30 -40 46 -15 23 -24 27 -62 27 -24 0 -46 -3
-48 -7z"/>
<path d="M10506 12188 c1 -18 5 -136 9 -263 3 -126 8 -286 10 -355 2 -69 6
-233 10 -365 3 -132 8 -292 10 -355 2 -63 7 -216 10 -340 4 -124 8 -274 10
-335 1 -60 6 -220 10 -355 l6 -245 -38 -18 c-21 -9 -45 -22 -53 -27 -8 -6 -67
-39 -130 -73 -63 -35 -135 -75 -160 -89 -25 -14 -72 -40 -105 -58 -33 -18
-139 -76 -235 -130 -96 -53 -368 -204 -605 -335 -236 -131 -450 -249 -475
-263 -25 -13 -211 -117 -415 -230 -203 -113 -386 -214 -405 -225 -19 -11 -69
-38 -110 -60 -41 -22 -79 -43 -85 -47 -5 -4 -41 -25 -80 -45 -166 -91 -411
-228 -419 -236 -6 -5 -8 -434 -7 -1060 l2 -1051 -88 68 c-48 37 -117 90 -153
118 -60 47 -115 90 -150 119 -8 7 -30 25 -50 40 -87 70 -119 96 -189 155 -263
221 -489 433 -636 597 -129 143 -307 413 -390 590 -130 275 -156 430 -132 790
8 130 13 149 62 246 79 158 262 428 372 549 92 101 112 125 109 127 -2 2 -23
5 -47 7 -464 41 -893 158 -1209 329 -196 106 -331 207 -491 366 -115 116 -245
279 -299 376 -12 22 -26 45 -30 50 -4 6 -29 52 -54 103 -26 50 -53 92 -60 92
-35 0 -35 7 -22 -620 4 -157 9 -330 11 -385 22 -501 24 -538 40 -705 2 -25 7
-76 10 -115 4 -38 8 -86 10 -105 17 -145 27 -219 30 -241 3 -14 7 -41 9 -60 8
-56 16 -112 22 -139 2 -14 7 -38 10 -55 3 -16 11 -55 19 -85 8 -30 16 -66 18
-80 6 -31 62 -226 87 -300 92 -271 189 -499 365 -851 220 -441 416 -742 682
-1049 12 -14 31 -36 43 -50 157 -184 428 -455 620 -621 143 -122 404 -322 505
-386 269 -170 599 -337 966 -489 61 -24 134 -55 162 -68 220 -99 686 -233
1117 -322 41 -9 84 -18 95 -20 11 -2 36 -7 55 -10 19 -3 43 -8 53 -11 11 -2
43 -6 73 -8 53 -3 54 -3 55 23 0 15 -1 376 -1 802 -1 426 -3 1197 -3 1713 l-2
939 210 107 c116 59 449 228 740 376 292 147 665 336 830 420 165 84 516 262
780 395 264 133 564 286 668 338 l187 96 0 75 c0 42 0 342 0 668 l0 591 51 76
c139 209 367 394 661 536 83 40 114 60 101 64 -10 3 -90 24 -178 46 -575 148
-779 207 -1005 292 -109 41 -122 47 -280 121 -415 196 -742 468 -1029 855 -46
61 -84 112 -85 112 -1 0 -1 -15 0 -32z"/>
<path d="M8274 11972 c-72 -75 -153 -162 -180 -192 -27 -30 -51 -57 -54 -60
-3 -3 -29 -32 -59 -65 -172 -190 -324 -337 -466 -449 -60 -48 -115 -91 -122
-96 -11 -9 -163 -108 -268 -175 -50 -32 -171 -101 -295 -170 -36 -19 -173 -89
-304 -155 -132 -66 -242 -124 -246 -129 -4 -8 -5 -214 -1 -422 l1 -26 158 1
157 1 47 -32 c25 -18 65 -52 88 -75 46 -48 112 -176 129 -253 6 -27 14 -61 17
-75 4 -14 7 -180 9 -370 1 -190 5 -363 9 -385 31 -168 208 -365 416 -462 111
-52 267 -79 350 -60 28 6 95 30 105 37 6 4 64 35 130 70 66 35 137 74 157 87
21 12 40 23 42 23 8 0 630 359 913 527 17 10 57 33 88 51 31 18 55 37 53 42
-13 40 -154 215 -248 310 -144 145 -250 225 -365 274 -50 21 -94 42 -99 46 -7
7 -11 592 -15 2098 -1 122 -4 222 -8 222 -5 0 -67 -62 -139 -138z"/>
<path d="M4848 12015 c-2 -2 -34 -5 -72 -6 -285 -10 -560 -191 -692 -455 -273
-542 116 -1185 726 -1199 227 -5 458 90 614 253 141 147 220 327 233 532 27
427 -302 819 -727 865 -30 4 -60 8 -67 10 -6 2 -13 2 -15 0z"/>
<path d="M18291 11308 c-117 -438 -235 -662 -398 -751 -52 -27 -89 -38 -139
-40 l-32 -1 3 -1126 c2 -619 4 -1129 4 -1134 1 -5 20 13 44 39 23 26 60 68 83
93 l41 45 -1 -136 c-1 -75 1 -137 4 -137 3 0 34 34 70 76 35 42 69 81 75 88 6
6 76 85 154 176 79 91 160 183 180 205 115 126 196 230 197 254 1 14 5 71 8
126 20 317 20 310 32 540 11 189 11 858 1 985 -13 151 -23 256 -33 310 -2 14
-6 43 -9 65 -3 22 -8 51 -10 65 -3 14 -10 45 -15 70 -32 157 -56 242 -60 215
-6 -43 -70 -268 -79 -277 -4 -4 -8 7 -9 24 -2 26 -14 91 -36 193 -2 6 -8 37
-15 70 -7 33 -16 66 -20 73 -4 8 -21 -39 -40 -110z"/>
<path d="M895 11298 c-9 -34 -18 -71 -20 -83 -1 -11 -7 -40 -13 -65 -6 -25
-13 -63 -16 -85 -4 -22 -11 -65 -16 -95 -9 -49 -13 -87 -25 -195 -29 -279 -33
-749 -10 -1170 5 -102 15 -263 20 -340 2 -33 7 -116 10 -185 8 -137 7 -134 50
-182 17 -18 59 -67 95 -108 36 -41 70 -80 75 -86 25 -29 122 -139 138 -158 59
-69 108 -125 148 -170 25 -28 76 -86 113 -129 l66 -79 0 34 0 33 43 -49 43
-48 2 678 c2 374 4 884 5 1134 l2 455 -21 1 c-37 2 -75 14 -70 23 3 5 -15 11
-40 15 -44 6 -114 46 -144 83 -60 73 -84 109 -125 187 -51 97 -140 353 -177
508 -13 54 -26 98 -29 98 -4 0 -12 -27 -19 -60 -12 -58 -30 -81 -30 -40 0 11
1 21 2 23 1 1 -4 12 -10 23 -6 12 -14 36 -17 55 -3 18 -7 35 -9 36 -2 2 -11
-25 -21 -59z"/>
<path d="M16090 11069 c0 -8 4 -40 9 -70 6 -30 12 -72 15 -94 3 -22 7 -49 10
-60 2 -11 7 -40 11 -65 4 -25 9 -54 11 -65 2 -10 6 -37 10 -59 3 -22 7 -43 9
-46 1 -3 6 -27 9 -54 4 -27 30 -142 58 -255 27 -113 52 -213 54 -221 13 -60
61 -223 90 -310 85 -258 157 -410 292 -625 46 -71 88 -139 95 -150 6 -10 44
-66 82 -123 39 -58 77 -115 85 -127 32 -48 86 -123 132 -182 26 -34 48 -65 48
-68 0 -4 6 -12 13 -19 6 -7 23 -28 37 -46 185 -248 289 -374 294 -358 4 12 14
64 22 113 1 11 5 29 7 40 3 11 8 42 11 68 4 27 9 59 12 70 2 12 7 42 10 67 3
25 7 55 9 68 2 13 7 53 11 90 3 37 8 69 9 72 18 30 27 522 11 615 -13 78 -62
290 -91 390 -14 50 -28 101 -31 115 -7 35 -146 445 -198 585 -37 100 -48 120
-65 120 -29 1 -34 9 -70 105 l-32 85 -112 1 c-62 0 -132 4 -157 8 -25 4 -57 9
-71 11 -26 5 -116 33 -179 57 -56 22 -119 57 -205 114 -81 54 -107 76 -202
168 -32 30 -53 44 -53 35z"/>
<path d="M3176 10984 c-44 -42 -94 -86 -111 -98 -114 -76 -153 -99 -217 -130
-40 -18 -91 -39 -113 -46 -22 -6 -47 -14 -55 -17 -19 -8 -18 -8 -60 -16 -80
-15 -140 -21 -236 -21 l-101 -1 -23 -60 c-12 -33 -26 -69 -30 -80 -38 -93
-186 -534 -194 -577 -2 -13 -9 -35 -14 -49 -13 -33 -79 -301 -87 -353 -4 -21
-9 -48 -11 -60 -20 -100 -26 -365 -11 -516 25 -247 58 -480 95 -673 12 -61 17
-65 37 -33 10 14 21 26 25 26 4 0 11 -25 15 -55 3 -30 10 -57 14 -59 4 -3 50
49 102 115 110 140 119 151 139 176 8 10 40 52 70 93 30 41 58 80 63 85 7 9
37 51 100 137 226 309 364 561 458 836 54 160 153 512 175 625 2 10 5 26 8 35
3 9 7 28 10 42 3 14 12 57 21 95 8 39 18 84 20 100 3 17 7 41 10 55 3 14 7 41
10 60 3 19 8 48 11 63 3 16 7 38 9 50 2 12 8 54 14 92 5 39 13 93 16 120 l7
50 -52 -50 c-45 -43 -52 -47 -47 -25 8 32 19 140 15 140 -2 -1 -39 -35 -82
-76z"/>
<path d="M15476 10763 c-6 -20 -6 -20 -100 -163 -276 -421 -717 -824 -1106
-1012 -134 -65 -343 -136 -445 -152 -44 -7 -116 -17 -149 -22 -68 -9 -147
-119 -149 -208 -1 -87 69 -186 148 -207 22 -7 70 -12 107 -12 l67 -1 19 -46
c17 -38 43 -112 47 -130 1 -3 6 -23 13 -45 6 -22 14 -62 17 -90 3 -27 8 -63
10 -80 12 -90 18 -206 17 -335 -1 -180 -10 -274 -43 -420 -71 -321 -232 -637
-530 -1038 -98 -131 -185 -228 -329 -367 -109 -105 -353 -321 -428 -379 -15
-11 -40 -33 -57 -49 -16 -15 -41 -34 -55 -41 -23 -11 -33 -12 -65 -8 -10 2
-11 98 -15 1184 -1 392 -3 444 -21 513 -71 285 -235 464 -510 559 -27 10 -88
12 -220 9 l-182 -4 -798 -400 c-440 -220 -799 -402 -799 -404 0 -4 116 -60
275 -133 66 -30 180 -83 254 -118 73 -35 135 -64 137 -64 1 0 63 -29 137 -64
74 -35 144 -67 156 -71 12 -3 21 -9 22 -13 3 -16 8 -821 13 -2021 3 -706 7
-1285 8 -1286 2 -2 59 12 128 31 69 19 177 48 240 65 140 38 408 117 435 128
11 5 67 25 125 46 94 33 310 117 490 191 80 32 461 219 550 269 296 168 646
411 894 623 56 47 178 163 271 256 326 327 541 611 765 1011 250 446 507 1144
595 1615 3 14 7 36 10 50 2 14 7 41 10 60 3 19 10 60 15 90 5 30 16 111 25
180 9 69 18 136 20 150 2 14 7 61 10 105 4 44 9 88 11 99 2 10 6 64 9 120 4
55 8 117 10 136 28 265 27 1138 -1 1770 -3 79 -10 127 -17 132 -20 13 -34 9
-41 -9z"/>
<path d="M16276 8890 c-31 -22 -68 -52 -82 -68 -22 -24 -78 -109 -80 -122 0
-3 -6 -18 -13 -35 -7 -16 -14 -37 -16 -45 -2 -8 -13 -55 -25 -105 -12 -49 -24
-103 -27 -120 -2 -16 -8 -41 -13 -55 -5 -14 -11 -37 -14 -52 -2 -14 -9 -35
-14 -45 -5 -10 -10 -137 -12 -283 -6 -723 -7 -816 -1 -825 3 -5 6 -12 6 -15 1
-3 6 -21 12 -40 7 -19 35 -109 63 -200 28 -91 61 -192 72 -225 11 -33 21 -67
23 -75 2 -8 10 -35 18 -60 23 -70 100 -314 103 -325 2 -14 94 -307 101 -325 3
-8 8 -22 9 -30 2 -8 10 -33 18 -55 l14 -40 13 29 c13 28 14 26 55 -100 23 -71
46 -128 50 -127 4 0 17 18 28 40 22 38 91 157 198 336 32 53 58 102 58 107 0
6 4 10 8 10 5 0 16 15 25 33 30 59 188 327 192 327 2 0 -8 -36 -21 -80 -13
-45 -26 -108 -30 -142 l-7 -61 49 7 c122 19 114 20 103 -16 -7 -27 -20 -104
-21 -128 -1 -26 8 -27 115 -3 61 13 123 26 137 29 99 21 249 85 304 130 192
160 289 297 554 784 16 30 61 109 99 175 236 404 272 551 228 945 -4 36 -8 72
-10 80 -1 8 -5 41 -10 72 l-7 57 -44 -24 c-53 -30 -60 -30 -60 -7 -1 22 -13
118 -20 160 l-6 32 -57 -32 c-174 -98 -403 -246 -473 -305 -74 -63 -163 -163
-218 -245 -58 -87 -168 -295 -217 -412 -14 -34 -33 -79 -43 -101 -75 -166
-210 -504 -210 -524 0 -5 -3 -12 -7 -14 -5 -3 -8 212 -7 476 0 279 -3 490 -8
501 -6 10 -32 48 -59 85 -30 42 -49 78 -49 95 0 23 -97 174 -167 261 -5 6 -17
23 -27 40 -11 16 -23 34 -28 40 -7 8 -319 445 -370 518 -65 94 -100 137 -111
137 -8 0 -39 -18 -71 -40z"/>
<path d="M2913 8827 c-31 -47 -100 -145 -284 -402 -240 -336 -352 -493 -369
-519 -13 -20 -15 -102 -14 -592 l1 -569 143 -240 c78 -132 154 -260 168 -285
13 -25 28 -49 32 -55 4 -5 17 -26 27 -45 27 -48 255 -434 259 -439 2 -2 7 6
12 19 7 20 15 11 70 -81 48 -82 62 -99 67 -84 4 11 11 31 15 45 5 14 34 104
64 200 30 96 89 283 131 415 83 260 79 247 89 290 4 17 11 39 16 50 5 11 25
74 45 140 20 66 43 137 51 158 7 20 11 37 9 37 -3 0 0 10 6 22 9 16 11 87 10
243 -2 121 -4 362 -6 535 -2 305 -3 318 -28 401 -14 48 -29 106 -32 130 -4 24
-8 46 -10 50 -2 3 -7 21 -10 40 -21 124 -83 248 -162 325 -29 28 -68 71 -86
96 -32 45 -63 75 -122 115 -53 36 -68 36 -92 0z"/>
<path d="M980 8293 c0 -4 -4 -35 -9 -68 -20 -128 -31 -248 -35 -375 -2 -68 9
-161 28 -235 23 -90 82 -255 124 -345 20 -42 119 -221 190 -343 29 -49 52 -90
52 -92 0 -2 22 -42 50 -89 27 -47 46 -86 43 -86 -3 0 0 -8 8 -17 8 -10 23 -34
33 -53 166 -302 356 -517 529 -595 49 -23 201 -70 256 -80 14 -3 37 -7 51 -10
117 -26 135 -26 134 0 -7 94 -52 261 -144 535 -62 187 -160 452 -171 465 -5 5
-9 15 -9 21 0 31 -297 687 -319 704 -4 3 -11 16 -17 30 -19 43 -134 193 -188
244 -71 69 -208 168 -364 264 -73 45 -135 82 -138 82 -3 0 -18 8 -32 19 -32
22 -72 36 -72 24z"/>
<path d="M15653 6803 c-28 -54 -73 -141 -100 -193 -28 -52 -85 -162 -128 -245
-43 -82 -110 -213 -150 -290 -40 -77 -111 -214 -158 -305 -46 -91 -124 -241
-173 -335 -84 -163 -88 -173 -88 -236 0 -57 5 -76 41 -150 23 -46 67 -127 98
-179 69 -119 91 -176 100 -265 8 -86 8 -248 0 -374 -6 -91 -5 -94 12 -80 10 9
52 43 94 76 l75 61 -1 -76 c-2 -42 -3 -104 -5 -137 -1 -33 -1 -64 -1 -68 1 -8
82 53 146 109 17 14 63 53 103 86 39 34 72 64 72 67 0 3 10 12 23 20 14 9 10
0 -14 -26 -37 -41 -42 -66 -25 -120 11 -33 55 -60 98 -58 20 1 37 -1 36 -4 -5
-48 5 -77 38 -107 20 -19 39 -32 42 -30 4 2 43 7 87 11 82 7 271 31 315 40 13
2 42 7 65 10 22 4 67 13 100 22 33 8 67 16 75 18 40 9 144 46 194 70 94 44
205 137 331 277 53 59 60 67 115 138 19 25 37 47 40 50 16 16 90 121 90 129 0
5 4 11 8 13 28 10 241 352 320 513 112 226 129 271 129 352 1 67 -5 75 -47 63
-18 -5 -51 -12 -72 -15 -38 -6 -39 -6 -31 22 9 32 10 120 1 128 -3 4 -59 -5
-124 -19 -66 -14 -130 -27 -144 -30 -14 -3 -79 -17 -145 -31 -66 -15 -129 -28
-140 -31 -11 -2 -31 -6 -45 -9 -14 -3 -34 -7 -45 -9 -11 -2 -54 -11 -95 -20
-41 -9 -78 -16 -82 -16 -3 0 -48 -69 -99 -152 -122 -203 -344 -536 -414 -623
-82 -103 -385 -407 -385 -388 0 5 12 20 26 34 151 140 268 421 301 729 13 114
5 492 -12 578 -2 10 -6 43 -9 73 -7 60 -16 124 -22 154 -3 11 -6 36 -9 56 -3
19 -19 103 -35 185 -38 182 -35 169 -54 232 -8 29 -15 55 -15 57 1 13 -33 119
-51 161 -23 53 -26 52 -65 -24 -15 -29 -30 -54 -34 -57 -4 -2 -13 19 -20 48
-21 82 -60 190 -75 205 -11 11 -21 -3 -63 -85z"/>
<path d="M3562 6782 c-21 -50 -49 -135 -57 -170 -9 -41 -13 -57 -28 -117 -20
-76 -65 -297 -72 -350 -2 -22 -7 -51 -10 -65 -4 -22 -8 -45 -20 -140 -17 -125
-29 -305 -29 -450 0 -177 11 -278 45 -415 11 -44 22 -87 24 -95 1 -9 17 -51
34 -95 57 -147 139 -265 300 -430 96 -98 264 -253 350 -321 13 -10 38 -31 55
-45 17 -14 48 -38 68 -53 l37 -27 -5 58 c-6 62 -6 381 -1 423 10 80 40 154
108 266 107 175 141 263 132 339 -4 35 -174 383 -348 710 -23 44 -84 161 -135
260 -95 185 -143 277 -271 520 -40 77 -78 150 -84 163 -5 12 -15 20 -22 18 -6
-3 -17 9 -23 25 -19 44 -26 43 -48 -9z"/>
<path d="M10413 6728 c-11 -13 -55 -75 -98 -138 -43 -63 -81 -117 -84 -120 -4
-3 -22 -25 -41 -50 -158 -206 -363 -366 -635 -497 l-100 -48 -173 0 c-126 0
-171 -3 -168 -12 3 -6 80 -141 171 -300 l167 -288 4 -265 c9 -672 13 -1104 15
-1328 l1 -243 -38 -57 c-96 -145 -230 -250 -426 -336 -92 -40 -76 -60 66 -82
21 -3 46 -7 55 -9 9 -1 48 -6 86 -10 39 -4 79 -9 90 -12 11 -2 103 -6 205 -8
202 -5 263 3 400 52 128 46 233 108 390 234 52 41 102 82 110 90 8 8 51 46 95
84 43 39 93 82 109 98 l31 27 -3 1547 -3 1547 -24 41 c-54 90 -157 133 -202
83z"/>
<path d="M1788 5733 c-65 -78 150 -521 463 -956 229 -319 415 -504 588 -583
41 -19 88 -45 105 -57 94 -67 307 -132 551 -167 39 -6 81 -12 95 -15 14 -2 51
-6 83 -9 31 -3 82 -9 113 -12 88 -10 131 19 141 93 6 44 -8 64 -119 170 -136
130 -461 455 -478 478 -50 66 -174 242 -222 315 -85 132 -113 174 -118 185 -3
6 -38 64 -79 130 -41 66 -80 130 -87 142 -10 16 -30 24 -84 33 -70 12 -81 19
-115 74 -7 11 -57 27 -150 47 -77 18 -147 33 -155 34 -8 1 -40 7 -70 13 -30 7
-66 14 -80 17 -21 4 -72 15 -90 20 -5 1 -68 14 -100 21 -8 1 -52 11 -97 22
-73 17 -84 18 -95 5z"/>
<path d="M14370 5154 c-151 -108 -213 -155 -218 -166 -2 -5 -10 -8 -17 -8 -7
0 -15 -3 -17 -8 -1 -4 -23 -23 -48 -42 -197 -153 -351 -309 -463 -467 -88
-126 -214 -372 -263 -516 -29 -85 -104 -341 -110 -377 -3 -14 -8 -34 -11 -45
-4 -11 -8 -24 -9 -30 -1 -5 -6 -28 -12 -50 -6 -22 -13 -51 -16 -65 -3 -14 -12
-52 -20 -85 -22 -86 -23 -83 33 -74 27 4 77 10 111 13 l62 6 -7 -28 c-8 -32
-11 -45 -21 -90 l-7 -34 64 7 c101 11 132 15 159 20 14 2 45 7 70 10 25 4 63
10 85 15 22 5 56 12 75 15 63 10 234 66 285 93 82 44 174 122 295 252 199 214
234 246 276 260 107 36 250 151 339 275 11 15 25 32 30 39 6 6 18 23 28 39
l18 27 -48 63 -47 64 -55 -29 c-70 -35 -93 -37 -63 -5 12 13 22 27 22 31 0 9
-38 63 -70 98 l-25 28 -82 -36 c-105 -45 -160 -45 -183 1 -16 31 -20 208 -6
270 24 110 83 266 156 416 21 43 36 79 33 79 -3 0 -17 -9 -31 -21 -15 -11 -81
-58 -146 -105 -66 -46 -130 -94 -143 -106 -27 -25 -31 -9 -9 34 8 14 19 43 26
65 7 21 19 48 27 60 8 12 13 23 12 25 -3 3 35 87 68 151 7 15 12 27 10 27 -2
0 -63 -43 -137 -96z"/>
<path d="M4749 5163 c78 -156 150 -340 167 -428 4 -22 9 -47 10 -55 2 -8 6
-50 8 -92 7 -105 -12 -164 -69 -221 -102 -102 -209 -117 -344 -49 l-59 31 -42
-55 c-22 -29 -43 -61 -46 -69 -6 -16 116 -173 188 -241 52 -50 132 -105 179
-124 48 -19 155 -104 214 -169 193 -213 334 -338 419 -371 13 -5 55 -30 92
-56 38 -26 101 -62 139 -80 112 -52 341 -103 580 -129 28 -3 62 -7 78 -9 15
-2 29 0 32 4 2 3 -2 31 -10 61 -8 30 -16 65 -19 79 -3 14 -10 45 -17 70 -6 25
-12 53 -14 62 -12 56 -102 366 -132 451 -35 103 -138 327 -156 338 -5 3 -8 10
-7 15 1 12 -149 238 -192 288 -136 159 -431 405 -728 607 -36 24 -68 48 -71
53 -4 4 -8 3 -10 -3 -2 -6 -47 20 -99 59 -52 38 -98 69 -103 70 -4 0 1 -17 12
-37z"/>
<path d="M16450 3954 c-36 -18 -71 -33 -77 -34 -7 0 -13 -4 -13 -10 0 -5 -4
-10 -9 -10 -5 0 -103 -45 -218 -101 -227 -110 -253 -122 -268 -123 -5 0 -37 8
-70 18 -33 10 -64 19 -70 20 -5 1 -35 10 -65 19 -30 9 -66 18 -80 20 -14 3
-52 12 -85 20 -33 9 -78 18 -100 22 -23 3 -52 8 -65 10 -33 7 -207 7 -245 0
-16 -3 -43 -8 -60 -11 -41 -7 -147 -45 -165 -59 -8 -6 -37 -22 -65 -35 -94
-44 -328 -205 -439 -300 -226 -193 -566 -538 -566 -573 0 -26 44 -63 104 -88
53 -21 55 -24 42 -43 -27 -42 14 -86 117 -125 33 -12 75 -24 95 -27 21 -2 48
-7 62 -9 14 -3 48 -8 75 -11 28 -3 64 -8 80 -10 64 -10 393 -12 453 -3 306 43
479 117 872 372 69 45 127 84 130 87 3 3 16 13 30 21 39 25 220 168 290 229
120 104 288 280 357 372 127 171 154 208 160 224 5 15 3 15 -23 1 -57 -29
-250 -121 -300 -142 l-51 -21 65 80 c35 45 70 89 78 99 8 9 14 21 14 26 0 5 3
11 8 13 6 2 43 55 75 105 12 19 0 15 -73 -23z"/>
<path d="M2751 3908 c39 -58 236 -326 249 -338 3 -3 19 -23 35 -45 29 -39 238
-251 305 -310 161 -140 391 -307 625 -452 57 -35 260 -143 270 -143 6 0 15 -4
21 -8 26 -23 233 -88 339 -107 140 -25 483 -25 599 0 11 2 43 7 69 10 87 10
146 24 200 46 58 25 107 65 107 88 0 9 -27 45 -60 81 -33 36 -60 72 -60 80 0
32 -357 396 -539 550 -92 78 -282 217 -363 265 -236 140 -345 174 -543 169
-77 -3 -123 -9 -274 -40 -44 -9 -246 -63 -304 -82 l-58 -18 -117 57 c-284 139
-534 259 -538 259 -3 0 14 -28 37 -62z"/>
<path d="M12862 2909 c-93 -7 -169 -16 -207 -23 -11 -2 -38 -7 -59 -10 -69
-13 -278 -86 -371 -130 -182 -86 -322 -197 -404 -318 -72 -106 -173 -330 -231
-513 l-23 -71 -161 -49 c-206 -63 -279 -91 -451 -174 -250 -122 -560 -312
-800 -490 -121 -90 -433 -338 -463 -368 -19 -18 -20 -18 -76 29 -111 94 -411
331 -489 386 -133 94 -286 188 -507 309 -296 164 -364 199 -421 223 -69 29
-208 64 -296 76 -59 7 -55 3 -133 149 -54 101 -133 224 -213 330 -34 45 -82
110 -107 145 -164 230 -527 431 -865 479 -69 10 -619 7 -702 -4 -71 -9 -126
-14 -155 -14 -26 -1 -26 -3 -16 -31 20 -58 180 -366 249 -480 63 -104 110
-171 282 -405 162 -220 353 -333 787 -463 74 -22 144 -43 155 -45 50 -13 -217
6 -330 24 -81 12 -81 12 -240 54 -303 79 -367 100 -393 132 -59 70 -127 133
-171 157 -9 5 -18 12 -21 16 -4 5 -96 79 -170 137 -18 14 -179 143 -200 160
-91 74 -244 193 -249 194 -3 1 -202 2 -441 3 l-435 2 -51 26 c-156 79 -252 48
-240 -78 6 -67 25 -102 92 -172 30 -31 81 -86 112 -121 53 -60 173 -151 199
-151 6 0 13 -3 15 -7 2 -5 24 -19 50 -33 27 -13 48 -28 48 -32 0 -3 8 -9 18
-12 10 -4 27 -14 38 -24 18 -17 235 -166 271 -187 10 -6 70 -41 133 -79 127
-76 341 -185 465 -236 44 -18 94 -39 110 -45 53 -23 247 -83 355 -111 205 -52
357 -72 550 -69 193 3 211 5 320 41 66 22 357 165 370 182 7 9 40 30 67 41 43
19 31 28 -45 31 -42 1 -95 4 -117 5 -22 2 -59 3 -82 4 -48 1 -55 12 -20 30 25
14 47 26 100 60 33 20 46 23 90 17 255 -31 349 -37 472 -30 198 13 273 9 356
-16 99 -30 231 -98 364 -188 175 -119 265 -199 414 -367 25 -28 72 -79 105
-115 34 -36 111 -119 171 -185 61 -65 124 -133 140 -150 45 -48 185 -203 214
-236 29 -32 31 -32 221 -30 l115 1 117 158 c106 142 143 190 258 333 75 92
107 128 230 250 253 250 553 462 727 514 97 29 223 41 436 44 119 1 217 -1
217 -6 0 -9 2 -10 106 -63 38 -19 85 -45 104 -58 53 -36 285 -136 328 -142 4
0 25 -5 47 -11 22 -6 47 -12 55 -14 8 -2 33 -8 55 -13 22 -6 65 -14 95 -17 30
-4 57 -8 61 -10 8 -5 165 -18 244 -19 99 -3 215 18 350 61 71 22 318 118 415
160 19 8 60 25 90 38 188 81 249 110 465 220 132 67 259 133 282 148 24 15 45
27 49 27 19 0 218 145 285 207 132 125 175 198 185 316 l5 59 -96 -4 -95 -4 5
54 5 54 -177 -7 c-98 -3 -212 -8 -253 -10 -41 -2 -133 -6 -205 -9 -71 -4 -168
-9 -215 -11 -119 -7 -263 -15 -343 -19 -95 -6 -135 -29 -260 -151 -59 -58
-112 -105 -118 -105 -5 0 7 33 27 73 66 131 234 543 234 575 0 5 -44 9 -97 11
-54 1 -99 4 -101 6 -2 2 10 42 28 90 18 48 30 89 27 91 -9 9 -565 11 -665 3z
m-1497 -1364 c-191 -66 -560 -262 -840 -446 l-90 -59 70 67 c194 184 474 374
630 428 56 19 191 40 275 43 l55 2 -100 -35z"/>
</g>
</svg>
